ply 
format ascii 1.0
comment created by Guoning
element vertex 382
property float32 x
property float32 y
property float32 z
property float32 s
property float32 vx
property float32 vy
property float32 vz
element face 702
property list uint8 int32 vertex_indices
end_header
0.459683 -0.997000 0.785714 0.000000 -0.001876 0.001649 0.000000
0.526593 -0.911559 0.785714 0.000000 -0.001929 0.001638 0.000000
0.591852 -0.839751 0.785714 0.000000 -0.001377 0.002125 0.000000
0.679053 -0.792299 0.785714 0.000000 -0.000500 0.002460 0.000000
0.811789 -0.779924 0.785714 0.000000 0.000460 0.003083 0.000000
1.003267 -0.805860 0.785714 0.000000 0.000837 0.004397 0.000000
1.225147 -0.843404 0.785714 0.000000 0.000026 0.003238 0.000000
1.438703 -0.858363 0.785714 0.000000 0.000127 0.003408 0.000000
1.605207 -0.816548 0.785714 0.000000 -0.002577 0.003383 0.000000
1.694378 -0.695745 0.785714 0.000000 -0.003932 0.001727 0.000000
1.709715 -0.521651 0.785714 0.000000 -0.003617 -0.000504 0.000000
1.663163 -0.331943 0.785714 0.000000 -0.003613 -0.001208 0.000000
1.566666 -0.164294 0.785714 0.000000 -0.003620 -0.002906 0.000000
1.434321 -0.044568 0.785714 0.000000 -0.001443 -0.002689 0.000000
1.288830 0.048618 0.785714 0.000000 -0.002091 -0.002490 0.000000
1.155049 0.148460 0.785714 0.000000 -0.002428 -0.002358 0.000000
1.057833 0.288155 0.785714 0.000000 -0.003027 -0.001129 0.000000
1.012332 0.486011 0.785714 0.000000 -0.005168 -0.000602 0.000000
0.994875 0.700795 0.785714 0.000000 -0.005105 -0.000785 0.000000
0.972087 0.876387 0.785714 0.000000 -0.003097 -0.001604 0.000000
0.910593 0.956667 0.785714 0.000000 -0.000273 -0.001823 0.000000
0.786837 0.904179 0.785714 0.000000 0.001466 -0.003035 0.000000
0.616545 0.756128 0.785714 0.000000 0.003312 -0.004257 0.000000
0.425267 0.568382 0.785714 0.000000 0.003517 -0.003114 0.000000
0.238549 0.396810 0.785714 0.000000 0.002113 -0.002531 0.000000
0.075964 0.287602 0.785714 0.000000 0.001453 -0.002741 0.000000
-0.066812 0.248230 0.785714 0.000000 0.000270 -0.002677 0.000000
-0.200074 0.276488 0.785714 0.000000 -0.001359 -0.002461 0.000000
-0.334123 0.370168 0.785714 0.000000 -0.002536 -0.002650 0.000000
-0.475343 0.518974 0.785714 0.000000 -0.003226 -0.002771 0.000000
-0.614476 0.680242 0.785714 0.000000 -0.003217 -0.003186 0.000000
-0.738355 0.803222 0.785714 0.000000 -0.001673 -0.003102 0.000000
-0.833809 0.837160 0.785714 0.000000 0.000652 -0.001867 0.000000
-0.893677 0.748994 0.785714 0.000000 0.003088 -0.001610 0.000000
-0.934828 0.576422 0.785714 0.000000 0.003648 -0.000891 0.000000
-0.980141 0.374833 0.785714 0.000000 0.003300 -0.000875 0.000000
-1.052491 0.199614 0.785714 0.000000 0.002458 -0.001294 0.000000
-1.167496 0.089708 0.785714 0.000000 0.001518 -0.002118 0.000000
-1.311733 0.018274 0.785714 0.000000 0.001122 -0.002257 0.000000
-1.464520 -0.057977 0.785714 0.000000 0.001542 -0.003092 0.000000
-1.605172 -0.182331 0.785714 0.000000 0.004923 -0.004186 0.000000
-1.713919 -0.381749 0.785714 0.000000 0.006653 -0.002476 0.000000
-1.774637 -0.617889 0.785714 0.000000 0.004156 -0.000190 0.000000
-1.772113 -0.836079 0.785714 0.000000 0.003295 0.000710 0.000000
-1.691134 -0.981651 0.785714 0.000000 0.001691 0.002495 0.000000
-1.525574 -1.017177 0.785714 0.000000 -0.000028 0.003481 0.000000
-1.305646 -0.974207 0.785714 0.000000 -0.000760 0.003793 0.000000
-1.070649 -0.901533 0.785714 0.000000 -0.000907 0.003992 0.000000
-0.859883 -0.847946 0.785714 0.000000 -0.001290 0.002940 0.000000
-0.702811 -0.850853 0.785714 0.000000 0.000444 0.002499 0.000000
-0.589556 -0.902116 0.785714 0.000000 0.001408 0.002158 0.000000
-0.500403 -0.982208 0.785714 0.000000 0.001766 0.001827 0.000000
-0.415641 -1.071606 0.785714 0.000000 0.001707 0.001807 0.000000
-0.319413 -1.152781 0.785714 0.000000 0.001423 0.002013 0.000000
-0.211299 -1.216191 0.785714 0.000000 0.000998 0.002256 0.000000
-0.094735 -1.254290 0.785714 0.000000 0.000463 0.002409 0.000000
0.026843 -1.259531 0.785714 0.000000 -0.000310 0.002437 0.000000
0.149452 -1.227431 0.785714 0.000000 -0.000869 0.002319 0.000000
0.266932 -1.165756 0.785714 0.000000 -0.001336 0.002103 0.000000
0.372577 -1.085336 0.785714 0.000000 -0.001618 0.001879 0.000000
0.057626 -0.419803 0.785714 0.683396 -0.000621 -0.000084 0.000000
0.309710 -0.648897 0.785714 0.337219 -0.001832 0.001751 0.000000
0.437049 -0.764624 0.785714 0.165149 -0.001890 0.001699 0.000000
-0.441824 -0.424986 0.785714 0.500529 0.001005 0.002337 0.000000
-0.169059 -0.752928 0.785714 0.397558 0.001665 0.001883 0.000000
0.271026 -0.898085 0.785714 0.203385 -0.001787 0.001799 0.000000
-0.545611 -0.654286 0.785714 0.243899 0.000992 0.002356 0.000000
-0.316998 -0.893195 0.785714 0.194166 0.001678 0.001844 0.000000
-0.074530 -0.995104 0.785714 0.250562 0.000728 0.002301 0.000000
0.350300 -0.976255 0.785714 0.092452 -0.001772 0.001764 0.000000
-0.599163 -0.772601 0.785714 0.114029 0.001041 0.002329 0.000000
-0.394594 -0.966768 0.785714 0.087406 0.001789 0.001757 0.000000
-0.116085 -1.122245 0.785714 0.118878 0.000749 0.002321 0.000000
0.381418 -0.865415 0.785714 0.142748 -0.001936 0.001598 0.000000
0.218001 -1.031141 0.785714 0.136750 -0.001474 0.001995 0.000000
-0.454900 -0.825457 0.785714 0.147016 0.001645 0.001931 0.000000
0.294367 -0.774112 0.785714 0.268150 -0.001902 0.001648 0.000000
0.096900 -0.066881 0.785714 0.372843 0.000869 -0.002378 0.000000
0.691885 -0.211912 0.785714 0.579917 -0.001191 0.000532 0.000000
0.050294 -1.098896 0.785714 0.149458 -0.000552 0.002380 0.000000
-0.785364 -0.617045 0.785714 0.232692 0.000039 0.002580 0.000000
-0.225951 -1.015974 0.785714 0.160602 0.001333 0.002031 0.000000
0.085517 -0.901250 0.785714 0.322285 -0.001137 0.002192 0.000000
0.048639 0.108128 0.785714 0.196170 0.000710 -0.002423 0.000000
0.719010 -0.502847 0.785714 0.284493 -0.000177 0.002524 0.000000
-0.037528 -1.077560 0.785714 0.176647 0.000143 0.002446 0.000000
-0.030521 -1.177452 0.785714 0.079532 0.000119 0.002478 0.000000
-0.716944 -0.724365 0.785714 0.127275 0.000418 0.002567 0.000000
-0.317966 -1.053442 0.785714 0.076864 0.001586 0.001906 0.000000
-0.225534 -1.116588 0.785714 0.078715 0.001266 0.002121 0.000000
0.178934 -0.938478 0.785714 0.237311 -0.001508 0.002098 0.000000
0.097906 -0.686493 0.785714 0.472805 -0.001575 0.001748 0.000000
0.022210 0.203969 0.785714 0.099418 0.000925 -0.003365 0.000000
0.732940 -0.652254 0.785714 0.134438 -0.000204 0.002532 0.000000
-0.662113 -0.613938 0.785714 0.248652 0.000551 0.002481 0.000000
-0.560650 -0.509341 0.785714 0.378220 0.000809 0.002420 0.000000
-0.839521 -0.727042 0.785714 0.121260 -0.000022 0.002535 0.000000
-0.993610 -0.763258 0.785714 0.158287 -0.000514 0.001723 0.000000
0.209573 -0.700175 0.785714 0.380638 -0.001903 0.001689 0.000000
0.173362 -0.816641 0.785714 0.329664 -0.001747 0.001775 0.000000
0.186346 -0.531403 0.785714 0.511294 -0.001865 0.001737 0.000000
-0.750537 -0.115990 0.785714 0.456258 0.001871 -0.001709 0.000000
-0.622319 -0.296602 0.785714 0.571432 0.000689 0.001687 0.000000
-0.554432 -0.392231 0.785714 0.492691 0.000704 0.002449 0.000000
-1.569581 -0.818724 0.785714 0.202472 0.001070 0.001638 0.000000
-0.770815 0.646643 0.785714 0.169069 -0.000165 -0.001296 0.000000
1.445061 -0.586059 0.785714 0.260540 -0.000670 0.001519 0.000000
-0.325441 -0.736142 0.785714 0.302555 0.001704 0.001871 0.000000
1.026190 -0.163749 0.785714 0.360119 -0.001314 -0.002087 0.000000
0.156233 -1.119684 0.785714 0.092247 -0.001145 0.002216 0.000000
-0.165990 -0.891267 0.785714 0.294212 0.001472 0.002013 0.000000
-0.039267 -0.871847 0.785714 0.374527 0.000277 0.002226 0.000000
-0.242368 -0.823758 0.785714 0.296103 0.001709 0.001865 0.000000
0.045589 -0.791211 0.785714 0.431922 -0.000834 0.001958 0.000000
-0.045374 -0.680339 0.785714 0.531937 0.000496 0.001904 0.000000
-0.071770 -0.777032 0.785714 0.440285 0.000972 0.002027 0.000000
0.031560 -0.560127 0.785714 0.607259 -0.000982 0.001722 0.000000
-0.222591 -0.520046 0.785714 0.534346 0.001522 0.001663 0.000000
0.118140 -0.595270 0.785714 0.519797 -0.001875 0.001695 0.000000
0.100527 -0.500355 0.785714 0.596047 -0.001853 0.001736 0.000000
-0.159195 -0.628067 0.785714 0.495929 0.001685 0.001874 0.000000
-0.083848 -0.466106 0.785714 0.666875 0.000691 0.000624 0.000000
-0.278959 -0.625741 0.785714 0.416327 0.001605 0.001966 0.000000
-0.352263 -0.518769 0.785714 0.455652 0.001347 0.002105 0.000000
-0.459081 -0.572055 0.785714 0.357500 0.001198 0.002256 0.000000
-0.432391 -0.686783 0.785714 0.269509 0.001525 0.002069 0.000000
-0.507512 -0.745753 0.785714 0.176579 0.001251 0.002026 0.000000
0.032194 -0.993709 0.785714 0.254181 -0.000724 0.002313 0.000000
0.508149 -0.558466 0.785714 0.288807 -0.001199 0.002239 0.000000
0.568788 -0.693518 0.785714 0.140766 -0.001233 0.002231 0.000000
0.658705 -0.704080 0.785714 0.090536 -0.001099 0.002325 0.000000
0.465070 -0.658948 0.785714 0.222942 -0.001520 0.002032 0.000000
0.527675 -0.774938 0.785714 0.091211 -0.001790 0.001775 0.000000
0.931220 -0.617980 0.785714 0.213298 0.000381 0.002287 0.000000
-0.966774 -0.868808 0.785714 0.108908 -0.008367 0.032909 0.000000
-1.202095 -0.392610 0.785714 0.419417 0.001063 -0.001338 0.000000
-1.260035 -0.705419 0.785714 0.246332 -0.000953 0.002477 0.000000
0.301703 -0.268318 0.785714 0.620551 -0.000011 -0.000579 0.000000
-0.455949 0.053100 0.785714 0.344649 -0.001330 -0.002072 0.000000
-0.959075 -0.013260 0.785714 0.218438 0.001803 -0.001832 0.000000
-1.666949 -0.872888 0.785714 0.111419 0.002756 0.001737 0.000000
-1.574777 -0.923982 0.785714 0.105387 0.000723 0.002986 0.000000
-1.432641 -0.908526 0.785714 0.142974 -0.000619 0.003342 0.000000
-1.313895 -0.834543 0.785714 0.139907 -0.000351 0.002172 0.000000
-1.200502 -0.897922 0.785714 0.129903 -0.001666 0.005449 0.000000
-1.434427 -0.708472 0.785714 0.315800 0.000162 0.001710 0.000000
-1.412657 -0.808313 0.785714 0.215912 -0.000581 0.002156 0.000000
-0.703589 0.714361 0.785714 0.095420 -0.003222 -0.003398 0.000000
-0.801548 0.734668 0.785714 0.084266 0.000663 -0.001991 0.000000
-0.870238 0.652213 0.785714 0.099579 0.004295 -0.001326 0.000000
-0.657965 0.502070 0.785714 0.197927 -0.000763 -0.001525 0.000000
1.493315 -0.723412 0.785714 0.162901 -0.000617 0.001612 0.000000
1.515266 -0.810821 0.785714 0.090123 -0.001427 0.005934 0.000000
1.594654 -0.715446 0.785714 0.101652 -0.002685 0.001999 0.000000
1.324414 -0.705596 0.785714 0.144408 0.000148 0.002510 0.000000
1.403476 -0.765582 0.785714 0.090093 0.000388 0.002558 0.000000
-0.365174 -0.817032 0.785714 0.215467 0.001742 0.001844 0.000000
1.130430 -0.024076 0.785714 0.193376 -0.001341 -0.002056 0.000000
-0.072426 -0.569927 0.785714 0.596911 0.001095 0.001781 0.000000
-0.084327 -0.225360 0.785714 0.486201 0.000090 -0.002587 0.000000
0.352686 -0.480263 0.785714 0.436189 -0.001391 0.002117 0.000000
0.820605 -0.568728 0.785714 0.215301 0.000412 0.002550 0.000000
0.839428 -0.675296 0.785714 0.108217 0.001080 0.002306 0.000000
0.967147 -0.388448 0.785714 0.423186 -0.000139 0.002026 0.000000
0.913235 -0.750758 0.785714 0.105556 0.000695 0.004764 0.000000
0.918206 -0.498365 0.785714 0.318264 0.000344 0.002360 0.000000
0.816053 -0.387027 0.785714 0.397059 0.000285 0.002535 0.000000
-1.299018 -0.198403 0.785714 0.200937 0.001100 -0.002296 0.000000
0.203182 -0.381952 0.785714 0.607510 -0.001221 0.001084 0.000000
-0.355715 0.196526 0.785714 0.191636 -0.001342 -0.001914 0.000000
-1.044539 0.076170 0.785714 0.094738 0.001746 -0.001918 0.000000
-1.350383 -0.526914 0.785714 0.395165 0.001348 -0.000262 0.000000
-1.599460 -0.644130 0.785714 0.187525 0.002556 -0.000365 0.000000
-1.681003 -0.744407 0.785714 0.129247 0.003122 0.000036 0.000000
-0.679374 0.601689 0.785714 0.101894 -0.001568 -0.001630 0.000000
-0.570325 0.577681 0.785714 0.111661 -0.004480 -0.003985 0.000000
1.139213 -0.676847 0.785714 0.203205 0.000306 0.001899 0.000000
1.091610 -0.509720 0.785714 0.313384 0.000693 0.002411 0.000000
1.001914 -0.549773 0.785714 0.259337 -0.000004 0.002276 0.000000
1.189802 0.055477 0.785714 0.099265 -0.002410 -0.003295 0.000000
0.926457 0.093053 0.785714 0.222619 -0.002122 -0.001445 0.000000
1.268772 -0.236057 0.785714 0.254006 -0.001507 -0.002016 0.000000
-0.044956 -0.345655 0.785714 0.612776 0.000201 -0.001954 0.000000
0.085272 -0.236443 0.785714 0.526781 0.000647 -0.002516 0.000000
-0.226438 -0.338462 0.785714 0.611866 0.000242 -0.000945 0.000000
0.048325 -0.324637 0.785714 0.607152 0.000204 -0.002039 0.000000
-0.137294 -0.382344 0.785714 0.647384 0.000590 -0.000897 0.000000
-0.325400 -0.403459 0.785714 0.571034 0.000780 0.001451 0.000000
-0.402321 -0.178510 0.785714 0.505616 -0.001160 -0.002031 0.000000
-0.334942 -0.281096 0.785714 0.579646 -0.000267 -0.001530 0.000000
-0.491771 -0.275837 0.785714 0.623514 -0.000227 0.000649 0.000000
-0.221821 -0.198431 0.785714 0.472003 -0.000475 -0.002532 0.000000
-0.570420 -0.113784 0.785714 0.548046 -0.000252 -0.002372 0.000000
-0.115433 -0.019706 0.785714 0.276131 -0.000152 -0.002588 0.000000
-0.568683 -0.213053 0.785714 0.628688 0.000081 -0.000818 0.000000
-0.679149 -0.201129 0.785714 0.565795 0.001369 -0.000981 0.000000
-0.926334 -0.335891 0.785714 0.502328 0.000421 0.000434 0.000000
-0.816304 -0.243633 0.785714 0.488846 0.001408 -0.001377 0.000000
-0.136661 -0.128096 0.785714 0.386580 -0.000205 -0.002548 0.000000
-0.012879 -0.124204 0.785714 0.388524 0.000482 -0.002525 0.000000
-0.162114 0.127145 0.785714 0.138221 -0.000530 -0.002481 0.000000
-0.885611 -0.127158 0.785714 0.353631 0.001808 -0.001816 0.000000
-0.760700 -0.421690 0.785714 0.433466 0.000112 0.002536 0.000000
-0.726012 -0.525304 0.785714 0.330129 0.000169 0.002554 0.000000
-0.659307 -0.394771 0.785714 0.467597 0.000336 0.002526 0.000000
-0.730699 -0.311820 0.785714 0.545207 0.000594 0.001243 0.000000
-0.825934 -0.344846 0.785714 0.509792 0.000327 0.001430 0.000000
-1.089668 -0.178133 0.785714 0.282611 0.001255 -0.002209 0.000000
-1.084785 -0.047844 0.785714 0.170623 0.001424 -0.002157 0.000000
-0.646588 -0.483581 0.785714 0.379930 0.000426 0.002507 0.000000
-0.996314 -0.117920 0.785714 0.279780 0.001443 -0.002101 0.000000
-0.986833 -0.235095 0.785714 0.384770 0.001355 -0.002151 0.000000
-1.096278 -0.311374 0.785714 0.396584 0.001216 -0.002004 0.000000
-1.202048 -0.108685 0.785714 0.167777 0.001244 -0.002345 0.000000
-1.189337 -0.239973 0.785714 0.289455 0.001187 -0.002233 0.000000
-1.178537 -0.010574 0.785714 0.084965 0.001221 -0.002269 0.000000
-1.309065 -0.090281 0.785714 0.098322 0.001124 -0.002288 0.000000
0.283869 -0.552518 0.785714 0.424902 -0.001796 0.001840 0.000000
0.392165 -0.580117 0.785714 0.330318 -0.001538 0.002017 0.000000
0.519411 -0.342453 0.785714 0.480675 -0.000802 0.002347 0.000000
0.892907 -0.248834 0.785714 0.492420 -0.000907 -0.001039 0.000000
0.313060 -0.377691 0.785714 0.544525 -0.001267 0.001994 0.000000
0.422114 -0.394500 0.785714 0.473974 -0.001170 0.002215 0.000000
0.514642 -0.450505 0.785714 0.384193 -0.000991 0.002331 0.000000
0.608212 -0.510308 0.785714 0.290778 -0.000675 0.002434 0.000000
-0.299027 0.277641 0.785714 0.098960 -0.002231 -0.003210 0.000000
-0.547984 0.308598 0.785714 0.236463 -0.001737 -0.001587 0.000000
-1.348437 -0.638046 0.785714 0.357480 0.000050 0.001502 0.000000
-1.535141 -0.722976 0.785714 0.267182 0.001707 0.000656 0.000000
1.224508 -0.738287 0.785714 0.105119 -0.000815 0.002455 0.000000
1.253105 -0.554064 0.785714 0.290840 -0.000148 0.002361 0.000000
0.991790 -0.029341 0.785714 0.245336 -0.001482 -0.002007 0.000000
1.057271 0.074387 0.785714 0.122668 -0.001619 -0.001688 0.000000
1.053238 0.181282 0.785714 0.106971 -0.002904 -0.002002 0.000000
0.800543 -0.052793 0.785714 0.412163 -0.002165 -0.001465 0.000000
0.906272 -0.122835 0.785714 0.372042 -0.001637 -0.001928 0.000000
0.891642 -0.004166 0.785714 0.309439 -0.002051 -0.001518 0.000000
0.799704 -0.168880 0.785714 0.484348 -0.001645 -0.001265 0.000000
0.781528 -0.279928 0.785714 0.505453 -0.000345 0.001624 0.000000
0.659251 -0.348004 0.785714 0.446612 -0.000439 0.002511 0.000000
1.299325 -0.095166 0.785714 0.115417 -0.001619 -0.002136 0.000000
1.179783 -0.143000 0.785714 0.244175 -0.001819 -0.001915 0.000000
1.133238 -0.342492 0.785714 0.424730 -0.001041 -0.000638 0.000000
1.166251 -0.245019 0.785714 0.329144 -0.001663 -0.001904 0.000000
0.190661 -0.271571 0.785714 0.593897 0.000582 -0.001837 0.000000
0.241915 -0.124274 0.785714 0.464592 0.000915 -0.002350 0.000000
-0.415190 -0.333129 0.785714 0.595950 0.000174 0.000775 0.000000
-0.060253 0.078680 0.785714 0.169677 0.000619 -0.002463 0.000000
-0.000402 -0.014318 0.785714 0.279993 0.000796 -0.002458 0.000000
-0.298951 0.050119 0.785714 0.247431 -0.001163 -0.002249 0.000000
-0.254377 -0.072291 0.785714 0.354497 -0.000634 -0.002478 0.000000
-0.308206 -0.153456 0.785714 0.449333 -0.000783 -0.002415 0.000000
-0.385450 -0.052590 0.785714 0.381711 -0.001326 -0.002132 0.000000
-0.490202 -0.046106 0.785714 0.443093 -0.001224 -0.002081 0.000000
0.892060 -0.338830 0.785714 0.464373 0.000005 0.001781 0.000000
1.005612 -0.278449 0.785714 0.460026 -0.000941 -0.000408 0.000000
-0.427891 0.293665 0.785714 0.121018 -0.001689 -0.001795 0.000000
-0.443163 0.408100 0.785714 0.115450 -0.003140 -0.002974 0.000000
-0.502938 0.180499 0.785714 0.256806 -0.001576 -0.001838 0.000000
-0.559609 0.434410 0.785714 0.119381 -0.001892 -0.001518 0.000000
-0.763769 0.160747 0.785714 0.301690 0.002335 -0.000894 0.000000
-0.636029 0.045361 0.785714 0.455890 0.000252 -0.001504 0.000000
-0.912644 0.146644 0.785714 0.149542 0.002285 -0.000992 0.000000
-0.636008 0.205675 0.785714 0.362495 -0.000677 -0.001274 0.000000
-0.547809 0.091584 0.785714 0.356294 -0.001460 -0.001880 0.000000
-0.700473 0.349910 0.785714 0.283646 0.000213 -0.001151 0.000000
-0.679602 0.125524 0.785714 0.391787 0.001102 -0.001277 0.000000
-0.724332 0.252723 0.785714 0.286759 0.001990 -0.001195 0.000000
-0.842893 0.333351 0.785714 0.143379 0.002296 -0.000619 0.000000
-0.784925 0.455521 0.785714 0.192582 0.001660 -0.000749 0.000000
-0.939078 0.262902 0.785714 0.119225 0.003050 -0.001273 0.000000
-0.840946 0.229806 0.785714 0.214232 0.002201 -0.000913 0.000000
1.158901 -0.580896 0.785714 0.275636 0.000039 0.002213 0.000000
1.343407 -0.604113 0.785714 0.247652 -0.000051 0.002098 0.000000
0.726864 -0.410863 0.785714 0.376812 -0.000213 0.002538 0.000000
1.063608 -0.413954 0.785714 0.403353 0.000199 0.001840 0.000000
1.195712 -0.446839 0.785714 0.404237 -0.000324 0.001392 0.000000
1.245618 -0.346084 0.785714 0.354538 -0.001594 -0.001466 0.000000
1.449357 -0.331509 0.785714 0.188901 -0.002123 -0.001331 0.000000
1.366391 -0.456155 0.785714 0.325378 -0.001419 -0.000100 0.000000
1.345401 -0.309632 0.785714 0.263904 -0.001809 -0.001548 0.000000
1.409482 -0.183683 0.785714 0.141314 -0.000822 -0.001972 0.000000
1.482014 -0.124858 0.785714 0.093387 -0.004427 -0.004769 0.000000
0.145728 -0.155409 0.785714 0.470110 0.000721 -0.002408 0.000000
0.476658 -0.111270 0.785714 0.565634 0.000908 -0.001288 0.000000
0.232870 0.064773 0.785714 0.272925 0.001162 -0.002241 0.000000
-0.263903 0.147915 0.785714 0.143545 -0.001650 -0.001931 0.000000
-0.376450 0.104279 0.785714 0.261001 -0.001612 -0.001788 0.000000
-0.199936 0.034277 0.785714 0.237593 -0.000541 -0.002475 0.000000
-0.773477 0.021598 0.785714 0.338996 0.002186 -0.001302 0.000000
-0.832707 0.095644 0.785714 0.244363 0.002342 -0.001143 0.000000
-0.859874 -0.029917 0.785714 0.319028 0.002027 -0.001760 0.000000
-0.661174 -0.058102 0.785714 0.476707 0.001083 -0.001682 0.000000
1.506971 -0.459792 0.785714 0.208169 -0.002146 -0.000739 0.000000
1.582576 -0.575174 0.785714 0.137946 -0.002076 -0.000286 0.000000
1.556202 -0.360603 0.785714 0.110735 -0.002092 -0.000572 0.000000
1.619586 -0.453874 0.785714 0.112770 -0.003330 -0.000859 0.000000
1.587595 -0.263843 0.785714 0.101725 -0.005047 -0.002918 0.000000
1.670349 -0.605906 0.785714 0.092997 -0.005726 0.000547 0.000000
0.361573 -0.159038 0.785714 0.550061 0.000796 -0.001809 0.000000
0.424467 -0.264535 0.785714 0.591102 -0.000645 0.001029 0.000000
0.366133 -0.007505 0.785714 0.417252 0.001365 -0.002180 0.000000
0.194651 -0.031795 0.785714 0.360735 0.000725 -0.002481 0.000000
1.490759 -0.241050 0.785714 0.107951 -0.001691 -0.001244 0.000000
0.600138 0.131001 0.785714 0.462855 0.000374 -0.001351 0.000000
0.503237 0.027786 0.785714 0.466929 0.001429 -0.001853 0.000000
0.627977 -0.068125 0.785714 0.574898 -0.000538 -0.001242 0.000000
0.718684 -0.110248 0.785714 0.512173 -0.001988 -0.001145 0.000000
0.393133 0.228250 0.785714 0.230731 0.001774 -0.001721 0.000000
0.604231 0.030064 0.785714 0.529174 -0.000108 -0.001448 0.000000
0.480809 0.145937 0.785714 0.350991 0.001758 -0.001836 0.000000
0.366369 0.111892 0.785714 0.331101 0.001296 -0.002064 0.000000
0.577156 -0.176809 0.785714 0.630989 -0.000328 0.000440 0.000000
0.516912 -0.248695 0.785714 0.572959 -0.000161 0.001612 0.000000
0.861837 0.772805 0.785714 0.150231 -0.000230 -0.001756 0.000000
0.875352 0.867616 0.785714 0.068222 -0.000398 -0.001859 0.000000
0.954343 0.784810 0.785714 0.093281 -0.005474 -0.000962 0.000000
0.737528 0.788933 0.785714 0.125351 0.002981 -0.003547 0.000000
0.745498 0.520054 0.785714 0.279016 -0.000078 -0.000970 0.000000
0.783447 0.655737 0.785714 0.217133 -0.000555 -0.000959 0.000000
0.648507 0.620330 0.785714 0.139508 0.001249 -0.001692 0.000000
0.885426 0.554065 0.785714 0.167386 -0.001959 0.000070 0.000000
0.891284 0.668308 0.785714 0.108566 -0.002258 -0.000374 0.000000
0.521143 0.662014 0.785714 0.134012 0.421719 -0.429458 0.000000
0.570894 0.448216 0.785714 0.220781 0.001532 -0.002062 0.000000
0.537084 0.293729 0.785714 0.329456 0.001976 -0.001672 0.000000
0.987520 0.592096 0.785714 0.108948 -0.010749 -0.000785 0.000000
0.643915 0.518844 0.785714 0.210025 0.001678 -0.001892 0.000000
0.534500 0.552434 0.785714 0.110390 0.001914 -0.000918 0.000000
0.410650 0.402343 0.785714 0.166681 0.002367 -0.002260 0.000000
0.768447 0.289798 0.785714 0.312374 -0.002386 -0.000758 0.000000
0.696142 0.398863 0.785714 0.329232 -0.000075 -0.001416 0.000000
0.882968 0.397129 0.785714 0.173041 -0.001840 -0.001457 0.000000
0.608135 0.359122 0.785714 0.314831 0.001411 -0.002081 0.000000
0.924707 0.474963 0.785714 0.088319 -0.002407 -0.000107 0.000000
0.789865 0.431340 0.785714 0.230042 -0.002366 -0.000407 0.000000
0.503132 0.382103 0.785714 0.234784 0.001613 -0.001881 0.000000
0.327067 0.322825 0.785714 0.115365 0.001552 -0.002018 0.000000
0.206639 0.268687 0.785714 0.132037 0.001848 -0.002751 0.000000
0.287489 0.191292 0.785714 0.229643 0.001268 -0.001984 0.000000
0.912921 0.250408 0.785714 0.149748 -0.002600 -0.000099 0.000000
0.991908 0.377154 0.785714 0.110756 -0.004602 -0.001228 0.000000
0.653213 0.243341 0.785714 0.433764 -0.000369 -0.001193 0.000000
0.764466 0.122073 0.785714 0.344402 -0.002247 -0.001060 0.000000
0.852803 0.314553 0.785714 0.225837 -0.002325 -0.000398 0.000000
0.963191 0.175472 0.785714 0.147155 -0.001583 -0.001615 0.000000
0.855975 0.166250 0.785714 0.242787 -0.002510 -0.000942 0.000000
-1.135046 -0.772222 0.785714 0.144459 -0.000882 0.001984 0.000000
-1.077098 -0.566260 0.785714 0.352949 -0.000589 0.002397 0.000000
-0.934743 -0.611829 0.785714 0.250765 -0.000598 0.002473 0.000000
-1.153256 -0.655966 0.785714 0.262133 -0.000326 0.002508 0.000000
-1.046449 -0.669462 0.785714 0.250209 -0.000611 0.002280 0.000000
-1.210316 -0.530341 0.785714 0.398992 -0.000183 0.001609 0.000000
-1.082758 -0.438521 0.785714 0.472062 0.000143 0.000724 0.000000
-1.017606 -0.367301 0.785714 0.484209 0.000586 -0.000432 0.000000
-0.961056 -0.484442 0.785714 0.380842 -0.000682 0.002235 0.000000
-0.845014 -0.513385 0.785714 0.341108 -0.000077 0.002502 0.000000
-0.926679 -0.702121 0.785714 0.160396 -0.000979 0.002284 0.000000
-1.453254 -0.212440 0.785714 0.172142 0.001430 -0.001370 0.000000
-1.398571 -0.130809 0.785714 0.098254 0.000652 -0.002676 0.000000
-1.517740 -0.139501 0.785714 0.097358 0.004448 -0.004980 0.000000
-1.557067 -0.337924 0.785714 0.179155 0.001435 -0.000687 0.000000
-1.362837 -0.351542 0.785714 0.294792 0.001805 -0.001520 0.000000
-1.539071 -0.247127 0.785714 0.092563 0.001802 -0.001620 0.000000
-1.656813 -0.283530 0.785714 0.113614 0.045964 -0.025057 0.000000
-1.599666 -0.488064 0.785714 0.178261 0.001760 -0.000726 0.000000
-1.266698 -0.310359 0.785714 0.316741 0.001210 -0.002082 0.000000
-1.371338 -0.258132 0.785714 0.228456 0.001027 -0.001942 0.000000
-1.457821 -0.314345 0.785714 0.198014 0.001656 -0.001189 0.000000
-1.298570 -0.435106 0.785714 0.392890 0.001419 -0.001125 0.000000
-1.624280 -0.399967 0.785714 0.091471 0.002330 -0.000583 0.000000
-1.722423 -0.505438 0.785714 0.123981 0.008134 -0.002092 0.000000
-1.681334 -0.592864 0.785714 0.096600 0.002295 0.000530 0.000000
-1.484135 -0.565945 0.785714 0.298118 0.001979 -0.000559 0.000000
-1.453045 -0.442021 0.785714 0.263975 0.002171 -0.001245 0.000000
-1.539211 -0.424103 0.785714 0.179898 0.001962 -0.000767 0.000000
1.119664 -0.792380 0.785714 0.117175 0.000987 0.006217 0.000000
1.023013 -0.690534 0.785714 0.117004 0.000453 0.002375 0.000000
1.071288 -0.611337 0.785714 0.209755 0.000689 0.002264 0.000000
-0.902401 0.463246 0.785714 0.117730 0.004266 -0.000909 0.000000
0.157770 0.158756 0.785714 0.152622 0.000998 -0.002264 0.000000
0.716014 0.020922 0.785714 0.456558 -0.002146 -0.001512 0.000000
3 141 140 44
3 88 81 67
3 57 109 79
3 173 43 140
3 140 43 44
3 88 89 81
3 144 347 143
3 228 104 146
3 47 347 144
3 99 65 76
3 156 71 67
3 72 89 54
3 54 55 72
3 0 1 73
3 85 86 79
3 54 89 53
3 90 74 65
3 1 2 132
3 49 96 48
3 73 62 76
3 124 122 123
3 72 81 89
3 202 209 204
3 87 49 70
3 114 120 64
3 65 73 76
3 89 88 53
3 50 75 70
3 142 146 104
3 47 134 97
3 86 55 56
3 119 116 118
3 81 72 68
3 96 49 87
3 69 65 74
3 30 175 29
3 289 101 292
3 88 71 52
3 216 167 213
3 68 72 85
3 121 182 186
3 30 147 174
3 51 52 71
3 167 214 213
3 292 101 195
3 156 75 71
3 74 90 127
3 33 148 32
3 110 81 68
3 148 105 147
3 147 105 174
3 285 380 83
3 159 198 191
3 225 256 169
3 50 70 49
3 288 247 200
3 74 109 58
3 68 111 110
3 69 74 59
3 94 70 66
3 60 119 168
3 0 69 59
3 73 1 62
3 85 127 68
3 93 3 4
3 2 3 130
3 29 259 257
3 61 76 62
3 73 69 0
3 27 200 26
3 155 6 7
3 71 75 51
3 155 152 151
3 88 67 71
3 90 99 82
3 153 294 151
3 242 255 275
3 93 224 130
3 179 14 15
3 127 85 79
3 294 10 296
3 293 296 295
3 79 86 56
3 88 52 53
3 72 86 85
3 311 301 305
3 61 98 76
3 234 237 235
3 320 318 319
3 51 75 50
3 112 107 156
3 19 20 315
3 162 4 164
3 20 21 315
3 314 322 316
3 80 87 94
3 92 25 26
3 115 113 114
3 65 69 73
3 14 240 13
3 287 258 138
3 157 241 240
3 302 283 245
3 108 157 231
3 79 56 57
3 322 314 319
3 67 81 110
3 132 129 131
3 18 316 322
3 87 70 94
3 70 75 126
3 231 157 232
3 7 152 155
3 223 222 160
3 72 55 86
3 58 59 74
3 87 80 96
3 283 302 77
3 99 76 98
3 90 82 127
3 98 100 118
3 114 64 115
3 247 26 200
3 92 83 380
3 164 133 162
3 129 130 224
3 95 66 124
3 95 94 66
3 95 63 103
3 209 103 204
3 96 80 349
3 96 357 48
3 101 197 195
3 359 167 216
3 61 217 98
3 91 113 99
3 65 99 90
3 91 99 98
3 62 132 131
3 185 159 182
3 27 28 225
3 170 36 37
3 186 117 121
3 205 195 197
3 246 190 103
3 204 103 102
3 142 141 45
3 136 347 350
3 149 105 148
3 379 268 269
3 277 280 181
3 240 181 281
3 120 122 64
3 156 125 75
3 166 84 161
3 84 93 161
3 58 109 57
3 127 109 74
3 68 127 111
3 112 110 64
3 113 111 82
3 110 111 115
3 107 112 64
3 67 110 112
3 99 113 82
3 113 91 114
3 91 116 114
3 64 122 107
3 110 115 64
3 113 115 111
3 118 116 91
3 120 158 117
3 117 158 121
3 121 116 60
3 98 118 91
3 119 118 100
3 168 119 100
3 60 116 119
3 158 114 116
3 120 117 122
3 183 283 199
3 60 182 121
3 117 123 122
3 122 124 125
3 187 117 184
3 63 95 124
3 125 124 66
3 63 124 123
3 66 70 126
3 122 125 107
3 75 125 126
3 66 126 125
3 79 109 127
3 111 127 82
3 239 274 238
3 131 218 61
3 129 2 130
3 129 128 131
3 3 93 130
3 224 93 84
3 218 128 160
3 61 62 131
3 1 132 62
3 2 129 132
3 6 154 229
3 166 161 165
3 47 48 134
3 48 97 134
3 358 360 363
3 353 355 354
3 136 227 145
3 146 142 143
3 100 98 217
3 245 137 299
3 194 102 190
3 189 246 187
3 213 207 208
3 210 201 139
3 141 44 45
3 104 228 173
3 142 45 46
3 104 140 141
3 143 142 46
3 104 141 142
3 144 143 46
3 136 145 146
3 46 47 144
3 47 97 347
3 136 352 227
3 42 43 173
3 136 146 143
3 146 145 228
3 30 31 147
3 148 147 31
3 32 148 31
3 149 148 33
3 33 34 149
3 269 149 34
3 105 149 269
3 36 262 270
3 151 152 153
3 106 154 155
3 7 8 152
3 153 152 8
3 8 9 153
3 298 294 153
3 163 165 178
3 176 377 376
3 106 155 151
3 6 155 154
3 112 156 67
3 125 156 107
3 15 233 232
3 241 181 240
3 114 158 120
3 116 121 158
3 83 247 248
3 187 184 189
3 223 219 222
3 168 160 221
3 162 93 4
3 165 161 133
3 133 161 162
3 93 162 161
3 165 133 178
3 166 165 254
3 4 5 164
3 164 5 377
3 177 378 272
3 163 254 165
3 255 220 254
3 78 239 238
3 359 360 358
3 212 354 211
3 168 100 217
3 283 244 245
3 226 256 257
3 251 188 189
3 208 207 210
3 290 139 291
3 167 359 367
3 362 368 374
3 145 227 373
3 365 371 372
3 104 173 140
3 173 172 372
3 269 174 105
3 150 259 175
3 30 174 175
3 150 175 174
3 276 272 230
3 164 377 133
3 229 230 272
3 281 13 240
3 133 377 378
3 178 177 275
3 232 179 15
3 240 179 157
3 17 326 334
3 220 108 235
3 108 220 255
3 242 275 276
3 168 244 185
3 159 184 186
3 60 185 182
3 137 244 168
3 191 251 189
3 123 187 63
3 168 185 60
3 159 185 183
3 159 186 182
3 117 186 184
3 117 187 123
3 184 191 189
3 195 194 192
3 190 102 103
3 191 184 159
3 190 246 188
3 103 63 246
3 188 192 194
3 198 199 193
3 198 250 191
3 253 188 252
3 264 138 258
3 26 247 92
3 286 249 288
3 188 194 190
3 192 292 195
3 201 211 197
3 102 194 195
3 348 352 350
3 204 205 202
3 201 197 101
3 356 196 355
3 199 198 159
3 193 288 250
3 183 199 159
3 199 77 248
3 286 27 225
3 286 287 249
3 291 101 289
3 139 170 208
3 356 206 196
3 203 80 94
3 209 94 95
3 202 206 356
3 205 204 102
3 209 202 203
3 195 205 102
3 197 196 206
3 202 205 206
3 197 206 205
3 214 135 212
3 210 211 201
3 37 215 170
3 38 216 215
3 94 209 203
3 103 209 95
3 208 210 139
3 211 210 207
3 212 211 207
3 211 196 197
3 214 212 207
3 352 353 135
3 215 213 208
3 213 215 216
3 213 214 207
3 367 366 167
3 170 215 208
3 38 215 37
3 38 39 216
3 359 216 39
3 218 217 61
3 168 217 160
3 128 218 131
3 217 218 160
3 307 312 78
3 300 221 222
3 108 231 235
3 220 237 238
3 222 221 160
3 137 168 221
3 223 160 128
3 222 219 300
3 128 224 223
3 223 224 239
3 224 128 129
3 84 274 224
3 256 225 28
3 225 169 286
3 260 267 271
3 256 258 169
3 352 136 350
3 373 227 171
3 373 228 145
3 173 228 172
3 230 229 154
3 376 229 176
3 154 273 230
3 181 243 277
3 157 179 232
3 180 236 231
3 233 15 16
3 180 231 232
3 345 16 340
3 232 233 345
3 305 301 284
3 285 302 301
3 236 235 231
3 234 307 237
3 343 236 180
3 235 236 234
3 238 237 78
3 220 235 237
3 78 312 239
3 238 166 254
3 239 219 223
3 166 274 84
3 240 14 179
3 181 280 281
3 157 108 241
3 108 255 243
3 177 272 276
3 243 181 241
3 108 243 241
3 277 243 242
3 244 137 245
3 185 244 183
3 299 300 284
3 302 83 77
3 187 246 63
3 188 246 189
3 193 199 248
3 92 247 83
3 83 248 77
3 193 248 247
3 253 252 138
3 247 288 193
3 193 250 198
3 252 249 287
3 191 250 251
3 250 249 252
3 188 251 252
3 252 251 250
3 266 264 263
3 188 253 192
3 255 254 163
3 238 254 220
3 275 255 163
3 243 255 242
3 257 256 28
3 256 226 258
3 28 29 257
3 175 259 29
3 258 226 263
3 292 253 261
3 265 259 150
3 226 257 259
3 226 265 263
3 170 262 36
3 264 253 138
3 266 289 261
3 139 262 170
3 267 268 271
3 226 259 265
3 263 267 266
3 263 264 258
3 253 264 261
3 269 268 265
3 266 267 260
3 289 266 260
3 264 266 261
3 263 265 267
3 268 267 265
3 265 150 269
3 270 268 35
3 269 150 174
3 379 269 34
3 36 270 35
3 262 290 271
3 268 270 271
3 262 271 270
3 378 177 178
3 229 272 176
3 154 106 273
3 106 293 279
3 238 274 166
3 224 274 239
3 178 275 163
3 276 275 177
3 273 279 230
3 242 276 277
3 279 276 230
3 293 278 279
3 276 279 277
3 295 297 303
3 106 279 273
3 279 278 280
3 279 280 277
3 281 278 303
3 278 281 280
3 282 281 303
3 12 13 282
3 13 281 282
3 199 283 77
3 244 283 183
3 305 284 306
3 236 343 234
3 245 299 301
3 338 339 337
3 286 200 27
3 287 286 169
3 258 287 169
3 252 287 138
3 286 288 200
3 250 288 249
3 290 289 260
3 201 291 139
3 271 290 260
3 139 290 262
3 101 291 201
3 290 291 289
3 253 292 192
3 289 292 261
3 294 293 106
3 296 11 295
3 151 294 106
3 298 153 9
3 297 295 11
3 278 293 295
3 294 296 293
3 11 296 10
3 11 12 297
3 282 303 12
3 9 10 298
3 10 294 298
3 300 299 137
3 299 284 301
3 300 137 221
3 300 219 313
3 304 305 309
3 311 305 310
3 301 302 245
3 83 302 285
3 295 303 278
3 12 303 297
3 341 16 17
3 325 336 308
3 312 306 284
3 305 304 310
3 307 78 237
3 343 304 381
3 381 307 234
3 307 306 312
3 331 333 342
3 338 337 24
3 305 306 309
3 306 307 381
3 336 328 329
3 310 308 311
3 339 311 308
3 285 301 311
3 313 284 300
3 312 313 239
3 239 313 219
3 284 313 312
3 21 317 314
3 317 319 314
3 21 314 315
3 315 314 316
3 18 19 316
3 315 316 19
3 21 22 317
3 319 317 320
3 318 320 327
3 327 331 318
3 320 317 22
3 319 318 321
3 22 323 320
3 327 320 328
3 318 331 335
3 321 334 326
3 319 321 322
3 326 322 321
3 22 23 323
3 328 323 23
3 336 325 333
3 308 310 325
3 310 304 325
3 342 333 325
3 17 18 326
3 322 326 18
3 328 320 323
3 344 335 330
3 329 328 23
3 327 328 324
3 23 24 329
3 337 329 24
3 330 342 343
3 340 16 341
3 327 324 331
3 333 331 324
3 321 335 334
3 344 340 341
3 336 333 324
3 325 304 342
3 335 321 318
3 341 334 332
3 330 335 331
3 334 335 332
3 328 336 324
3 308 336 329
3 338 24 25
3 308 329 337
3 25 92 380
3 285 311 339
3 337 339 308
3 339 338 380
3 346 330 343
3 345 180 232
3 334 341 17
3 341 332 344
3 343 342 304
3 331 342 330
3 304 309 381
3 180 345 346
3 335 344 332
3 346 344 330
3 16 345 233
3 346 345 340
3 346 340 344
3 343 180 346
3 351 350 347
3 143 347 136
3 48 357 97
3 135 353 212
3 203 356 80
3 349 348 351
3 351 347 97
3 353 352 348
3 351 97 357
3 348 350 351
3 369 352 135
3 227 352 171
3 355 348 349
3 211 354 196
3 212 353 354
3 353 348 355
3 349 80 356
3 196 354 355
3 202 356 203
3 349 356 355
3 96 349 357
3 351 357 349
3 363 364 361
3 366 135 214
3 360 359 39
3 359 358 367
3 39 40 360
3 363 360 40
3 375 370 365
3 368 375 374
3 368 358 363
3 369 362 374
3 364 363 40
3 368 363 361
3 40 41 364
3 370 364 41
3 365 370 371
3 373 365 172
3 167 366 214
3 369 366 362
3 368 367 358
3 366 367 362
3 375 373 374
3 367 368 362
3 352 369 171
3 366 369 135
3 364 370 361
3 371 370 41
3 41 42 371
3 372 371 42
3 173 372 42
3 365 372 172
3 373 172 228
3 369 374 171
3 375 368 361
3 171 374 373
3 370 375 361
3 373 375 365
3 5 6 376
3 229 376 6
3 376 377 5
3 176 272 378
3 133 378 178
3 176 378 377
3 34 35 379
3 268 379 35
3 339 380 285
3 380 338 25
3 306 381 309
3 234 343 381
